<?xml version="1.0" standalone="no"?><!DOCTYPE svg PUBLIC "-//W3C//DTD SVG 1.1//EN" "http://www.w3.org/Graphics/SVG/1.1/DTD/svg11.dtd"><svg t="1763462111585" class="icon" viewBox="0 0 1024 1024" version="1.1" xmlns="http://www.w3.org/2000/svg" p-id="24532" xmlns:xlink="http://www.w3.org/1999/xlink" width="200" height="200"><path d="M53.894737 53.894737m263.410526 0l389.389474 0q263.410526 0 263.410526 263.410526l0 389.389474q0 263.410526-263.410526 263.410526l-389.389474 0q-263.410526 0-263.410526-263.410526l0-389.389474q0-263.410526 263.410526-263.410526Z" fill="#FFFFFF" p-id="24533"></path><path d="M285.642105 53.894737h133.685895v581.685895H53.894737V285.642105A231.747368 231.747368 0 0 1 285.642105 53.894737z" fill="#C1FA97" p-id="24534"></path><path d="M738.357895 53.894737h-232.070737v581.685895H970.105263V285.642105A231.747368 231.747368 0 0 0 738.357895 53.894737z" fill="#E2FDFF" p-id="24535"></path><path d="M285.642105 970.105263h133.685895v-261.793684H53.894737V738.357895A231.747368 231.747368 0 0 0 285.642105 970.105263z" fill="#EFFEFF" p-id="24536"></path><path d="M738.357895 970.105263h-232.070737v-261.793684H970.105263V738.357895a231.747368 231.747368 0 0 1-231.747368 231.747368z" fill="#7CE5F4" p-id="24537"></path><path d="M407.605895 839.194947l-53.032421-173.675789L831.191579 191.973053z" fill="#2427FF" p-id="24538"></path><path d="M135.275789 542.827789L847.898947 176.532211 707.799579 877.136842l-270.228211-168.825263L823.781053 203.398737 354.573474 665.519158z" fill="#0274FF" p-id="24539"></path><path d="M437.571368 708.311579l-29.965473 130.883368 78.336-100.837052z" fill="#2E0AD4" p-id="24540"></path></svg>