<?xml version="1.0" standalone="no"?><!DOCTYPE svg PUBLIC "-//W3C//DTD SVG 1.1//EN" "http://www.w3.org/Graphics/SVG/1.1/DTD/svg11.dtd"><svg t="1763465554121" class="icon" viewBox="0 0 1024 1024" version="1.1" xmlns="http://www.w3.org/2000/svg" p-id="6177" xmlns:xlink="http://www.w3.org/1999/xlink" width="200" height="200"><path d="M201.59792 192.9h256.9c35.6 0 58.3 29.1 49.5 64.3L388.29792 764.6c-8.3 35.7-44.4 64.3-80 64.3H51.39792c-35.6 0-58.3-29.1-49.5-64.3l119.7-507.4c8.2-35.2 43.8-64.3 80-64.3z m0 0" fill="#E03636" p-id="6178"></path><path d="M458.59792 192.9h256.9c35.6 0 58.3 29.1 49.6 64.3L645.39792 764.6c-8.3 35.7-44.4 64.3-80 64.3h-257c-35.6 0-58.3-29.1-49.5-64.3l119.7-507.4c8.3-35.2 43.9-64.3 80-64.3z m0 0" fill="#004A89" p-id="6179"></path><path d="M715.59792 192.9h256.9c35.6 0 58.3 29.1 49.6 64.3L902.39792 764.6c-8.3 35.7-44.4 64.3-80 64.3h-257c-35.6 0-58.3-29.1-49.5-64.3l119.7-507.4c8.3-35.2 43.9-64.3 80-64.3z m0 0" fill="#008089" p-id="6180"></path><path d="M737.19792 628.2h-8.3l31.5-102.6 10.3 0.5 3.3-10.4 0.3 10.9c-0.5 7.1 5.7 13.8 20.7 12.7h17.5l6.2-19.9h-6.7c-3.6 0-5.1-1-5.1-3.1l-0.5-11.7h-32.5v0.5c-10.6 0.2-41.6 0.8-48 2.5-7.7 2.1-16 7.7-16 7.7l3.1-10.7h-30.5l-6.2 20.9-32 104.1h-6.2l-6.2 19.4H692.29792l-2.1 6.6h29.9l2.1-6.6h8.3l6.7-20.8z m-37.7 0H675.29792l7.2-23h24.2l-7.2 23z m13.4-44.9s-7.2 1-12.4 2c-4.7 1.5-13.9 6.1-13.9 6.1l8.3-27.1h23.7l-5.7 19z m-0.5-36.7c-5.2 1-13.9 5.1-13.9 5.1l8.3-26 23.7 0.5-5.7 18.9c0-0.1-7.2-0.1-12.4 1.5z m-244.5-41.9l-8.2 15.3c-2.1 3-3.6 5.1-5.2 6.1-2.5 0.7-5.1 1.1-7.7 1h-4.7l-6.2 19.4H450.29792c6.7 0 12.4-2.5 15-4.1 2.6-1.5 3.6-0.5 5.7-2.6l5.2-4.1h45.9l6.2-20.4h-33.5l6.7-10.7-33.6 0.1z m181.6 0h-46.4s-14.4 2-20.6 4.6c-6.2 2.6-15.5 9.7-15.5 9.7l4.1-14.3h-28.4l-40.3 130.7c-1.5 5.1-2.6 9.2-2.6 11.2 0 2.6 3.1 4.6 5.2 6.7 2.6 2 5.7 2 9.3 2 3.6 0.5 8.3 0.5 15.5 0.5h22.2l6.7-22.5-19.6 2.1c-2.1 0-3.6-1-4.1-2.1-0.5-1 0-3.1 1-7.1l12.4-40.8H593.29792c6.7 0 11.4-0.5 14.4-0.5 3.8-0.6 7.5-1.8 10.9-3.6 4.1-2.1 6.2-4.6 7.7-7.2 2.1-2.6 5.2-8.7 7.7-17.4l15.5-52z m-49 61.8c-0.5 0-1.5-0.5-6.2 0h-40.8l3.1-9.2h46.9l-3 9.2z m9.3-29.1s-22.2 0-25.8 0.5c-15.5 2.6-24.8 10.7-24.8 10.7l6.7-22.5h47.5l-3.6 11.3zM757.29792 564.9h35.1l-5.2 15.8h-35.1l-5.2 17.4h31l-23.7 32.7c-1.6 2.5-3.1 3.6-4.7 4.1-1.8 1.3-4 2-6.2 2.1h-8.8l-5.7 19.4h22.7c11.9 0 18.6-5.6 23.7-12.2l16-22 3.6 22c0.5 4.1 3.6 6.6 5.7 7.6s4.6 2.6 7.7 3.1c3.6 0.5 6.2 0.5 7.8 0.5h10.8l6.7-22.5h-4.1c-2.6 0-7.2 0-7.7-1s-0.5-2.6-1-4.6l-3.6-21.9h-14.4l6.2-7.1h35.1l5.2-17.4h-32.5l5.2-15.8H854.29792l6.2-19.9h-97l-6.2 19.7z m-294.1 67.4l8.3-26.6h33.5l6.2-19.9h-33.5l5.2-16.3H515.29792l6.2-19.4h-82L433.29792 569h18.6l-5.2 16.3h-18.6l-6.2 20.4h18.6l-10.8 35.7c-1.6 4.6 0.5 6.7 2.1 8.7 1.5 2.6 3.1 3.6 6.2 4.6 3.6 0.5 5.7 1 8.8 1h37.7l6.7-21.9-16.5 2c-3.7 0.1-12.5-0.4-11.5-3.5z m77.9-149l1-1c1.5-8.7 2.1-10.7 5.7-28.1 1.6-8.2 5.2-26 7.2-32.7 3.6-1.5 6.7-3.1 9.8-3.1 7.2 0 6.2 6.6 6.2 9.2 0 4.6-3.1 18.4-5.6 30.6l-1.6 7.7c-1.6 5.6-3.1 11.2-4.1 16.8l0.5 1c15-0.5 19.6-0.5 32.5-0.5 0 0 2.1-1.5 1-1.5 2.6-13.3 3.1-16.8 7.2-36.2l2.1-8.7c4.1-17.4 6.2-26.6 3.1-33.7-3.1-8.2-10.9-10.2-18.1-10.2-4.6 0-12.9 1-20.7 4.6-3.1 1.5-5.7 3.1-8.3 4.6l2.6-8.7-1-1.5c-16 3.1-19.6 3.6-34.6 5.6l-1 1c-2.1 14.3-3.6 25-9.8 53.1-2.6 10.7-5.2 20.9-7.7 31.1l0.5 1c15-0.4 19.7-0.4 33.1-0.4z m196.1-58.7c-2.6 11.7-6.2 33.7 13.9 41.3 6.2 2.6 12.4 3.6 18.1 3.1 6.2-0.5 11.9-3.6 17-7.7-0.5 1.5-1 3.6-1.5 5.1l1 1c14.4-0.5 19.1-0.5 34.6-0.5l1.6-1c2-13.3 4.6-26 10.3-51.6 2.6-12.3 5.7-24 8.8-36.2l-0.5-1c-16 3.1-20.6 3.6-36.1 5.6l-1 1c0 1-0.5 2.6-0.5 3.6-2.6-4.3-6.6-7.6-11.4-9.2-6.7-2.6-23.2 1-37.1 13.3-10 9.2-14.7 21.4-17.2 33.2z m34 1c3.6-14.3 7.2-27 17.5-27 6.7 0 9.8 6.1 9.3 16.3-0.5 2.8-1.2 5.5-2 8.2-1.1 4.6-2.1 8.7-3.1 13.3-1 2-2.1 4.6-3.6 6.7-2.6 3.6-8.8 6.1-12.4 6.1-1 0-7.2 0-7.7-9.2 0-4.7 1-9.3 2-14.4zM600.99792 596.1c-0.5 1.5-1 2.6-2 3.1-1 1-2.6 1-4.6 1h-6.7l0.5-11.2H560.29792l-1.1 55.2c0 4.1 0 6.1 3.1 8.1 3.1 2.6 11.9 2.6 24.3 2.6h17.5l6.2-20.4-15 1h-5.2c-0.8-0.1-1.5-0.5-2.1-1-0.5-0.5-1.6 0-1.6-4.1V616l16-0.5c8.8 0 12.4-3.1 15.5-5.6 3.1-2.6 4.1-5.1 5.1-9.2l2.6-12.2-22.2-1-2.4 8.6zM332.69792 392.9c-7.1 0.1-14.1 1.7-20.6 4.6-3.1 1.5-5.7 3.1-8.2 4.6l2.6-8.7-1.6-1.5c-16 3.1-19.6 3.6-34.6 5.6l-1 1c-2 14.3-3.6 25-9.8 53.1-2.6 10.7-5.2 20.9-7.7 31.1l0.5 1c15-0.5 19.6-0.5 33-0.5l1-1c1.6-8.7 2.1-10.7 5.7-28.1 1.6-8.2 5.2-26 7.2-32.7 3.6-1.5 6.7-3.1 9.8-3.1 7.2 0 6.7 6.6 6.2 9.2 0 4.6-3.1 18.4-5.7 30.6l-2.1 7.7c-1.6 5.6-2.6 11.2-4.1 16.8l0.5 1c15-0.5 19.6-0.5 32.5-0.5l2.1-1.5c2.6-13.3 3.1-16.8 7.2-36.2l2.1-8.7c4.1-17.4 6.2-26.6 3.1-33.7-3.2-8-10.9-10.1-18.1-10.1zM449.29792 468c15 0 29.9-4.1 41.3-15.8 8.8-10.2 12.9-24.5 13.9-30.6 4.7-19.9 1-28.6-3.6-34.2-6.7-8.7-18.6-11.2-31-11.2-7.2 0-24.8 0.5-38.7 13.3-9.8 9.2-14.4 21.4-17 33.2-2.6 11.7-6.2 33.7 13.9 41.9 6.2 2.3 15 3.4 21.2 3.4z m-1.6-44c3.6-14.8 7.2-27.6 17.5-27.6 8.8-0.5 9.3 8.7 5.7 24-0.5 3.1-3.6 15.8-7.7 20.9-2.6 3.6-6.2 6.1-9.8 6.1-1 0-7.2 0-7.7-9.2 0-4.4 1-9.1 2-14.2z m-180-92.3c-27.9-0.5-35.6-1-37.7-1.5-1 4.6-18.6 85.7-19.1 85.7-3.6 16.3-6.7 28.1-16 35.7-5.2 4.6-11.9 6.6-19.1 6.6-11.9 0-18.6-5.6-19.6-16.8v-3.6l3.6-22s18.6-74 22.2-83.7c0-0.5 0-1 0.5-1-36.6 0.5-42.8 0-43.3-0.5 0 0.5-1 5.1-1 5.1l-19.1 83.7-1.5 7.1-3.1 23c0 6.6 1.5 12.2 4.1 17.3 8.8 15.3 33.5 17.3 47.5 17.3 18.1 0 35.1-4.1 46.4-10.7 20.1-11.7 25.3-30.1 29.9-46l2.1-8.2s19.1-77.1 22.7-86.8c0-0.2 0-0.7 0.5-0.7z m679 43.4c-16 3.1-18.6 3.6-33.5 5.6l-1 1v0.5c-10.8 25-10.3 19.4-19.6 39.3v-2.6l-2-42.4-1.6-1.5c-16.5 3.1-17 3.6-32.5 5.6l-1 1v1.5c2 9.7 1.5 7.7 3.6 23 1 7.7 2.1 15.3 3.1 22.5 1.6 12.3 2.6 18.9 4.2 37.8-10.3 16.8-12.9 23.5-22.7 38.3l-7.2 11.2c-1 1-1.6 2-2.6 2-1 0.5-2.6 0.5-4.7 0.5h-4.1l-5.7 19.4 20.1 0.5c11.9 0 19.1-5.6 23.2-12.8l12.4-21.5 1.6-1.5c7.2-16.8 71.2-126.1 71.2-126.1l-1.2-1.3z m-569.6 14.2c-4.6 3-7 6.6-7.2 10.1l-0.5 0.1-1 1c-1 5.6-1.5 10.7-2.6 16.3-1 6.1-2.6 12.8-4.7 22.5-1.5 7.7-2.6 10.2-3.6 12.8-1.6 4.2-3 8.4-4.1 12.8l1 1c7.2 0 12.4-0.5 17-0.5h17.5l1-1c1-6.6 1.5-8.7 2.1-11.7 0.5-3.1 1.6-8.2 4.6-20.9 1-6.1 2.6-12.3 4.1-18.4l2.2-8.8c8.6-6.1 9.6-13.6 2.4-18.2-7.1-4.2-20-3.2-28.2 2.9z m275.5 94c1-4.6 6.7-31.6 6.7-31.6s4.6-19.9 5.1-20.9c0 0 1.6-2 3.1-3.1h2.1c21.1 0 44.9 0 63.5-13.8 12.4-9.2 21.2-23 25.3-39.8 1-4.1 1.6-9.2 1.6-13.8 0-6.6-1.6-12.8-5.2-17.4-9.3-12.3-27.8-12.8-50-12.8h-10.9c-27.9 0.5-39.2 0-43.9-0.5-0.4 1.9-0.8 3.7-1 5.6l-9.8 46-25.3 102.1c24.2-0.6 34.5-0.6 38.7 0z m18.5-81.7s10.9-45.9 10.9-45.4v-4.6l4.1 0.5 22.7 2c8.8 4.1 12.4 12.8 9.8 23.5-2 10.2-8.8 18.9-17.5 23-7.2 3.6-16 3.6-24.8 3.6h-5.7l0.5-2.6z m0 0" fill="#FFFFFF" p-id="6181"></path></svg>