<?xml version="1.0" standalone="no"?><!DOCTYPE svg PUBLIC "-//W3C//DTD SVG 1.1//EN" "http://www.w3.org/Graphics/SVG/1.1/DTD/svg11.dtd"><svg t="1763462254942" class="icon" viewBox="0 0 1024 1024" version="1.1" xmlns="http://www.w3.org/2000/svg" p-id="28774" xmlns:xlink="http://www.w3.org/1999/xlink" width="200" height="200"><path d="M534.72 477.632l-21.632 68.608c-11.52 42.624-10.56 56-4.672 65.92 1.408 2.432 5.376 10.432 10.88 31.744 8.064 30.848 15.104 77.376 15.296 79.616-1.152 28.416-0.576 58.56 1.728 87.424H250.752A58.88 58.88 0 0 1 192 752.256V220.8a58.88 58.88 0 0 1 58.752-58.688h439.488c-67.328 71.36-134.016 206.912-155.52 315.52z m310.272-332.928c80.576 71.872 0.576 236.16-72.832 351.744-53.376 17.152-115.584 55.04-115.584 55.04s5.12-2.752 24.32-10.88c13.056-5.44 51.968-14.656 75.648-20.032-39.552 59.52-73.344 101.248-73.344 101.248s-68.992 28.032-90.304 93.248c12.352-69.568 32.896-142.08 61.824-219.52 25.856-68.992 112.192-255.488 176-313.152-70.016 55.808-146.496 172.608-201.6 318.208-32.64 96.448-50.304 188.992-53.184 265.728-1.92 50.24 2.432 93.76 13.12 126.976L584.128 896c-10.496-27.2-20.096-75.008-17.792-172.928a1260.352 1260.352 0 0 1-0.576-7.232s-6.4-42.88-15.488-78.08c-4.096-15.616-8.704-29.696-13.504-37.888-2.56-4.224 0.256-21.632 7.232-47.36 11.776 20.608 24.512 42.88 29.44 60.992 0 0-9.472-48.448-24.96-76.8 3.392-11.392 7.488-24.064 12.032-37.568 11.392 19.968 23.04 38.912 27.712 57.92a352.512 352.512 0 0 0-22.656-72.448C584.96 383.36 647.616 250.88 715.072 179.2c36.032-38.4 85.632-72.768 129.92-34.496z" fill="#89DDFF" p-id="28775"></path><path d="M844.992 144.704c80.576 71.872 0.576 236.16-72.832 351.744-53.376 17.152-115.584 55.04-115.584 55.04s5.12-2.752 24.32-10.88c13.056-5.44 51.968-14.656 75.648-20.032-39.552 59.52-73.344 101.248-73.344 101.248s-68.992 28.032-90.304 93.248c12.352-69.568 32.896-142.08 61.824-219.52 25.856-68.992 112.192-255.488 176-313.152-70.016 55.808-146.496 172.608-201.6 318.208-32.64 96.448-50.304 188.992-53.184 265.728-1.92 50.24 2.432 93.76 13.12 126.976L584.128 896c-10.496-27.2-20.096-75.008-17.792-172.928a1260.352 1260.352 0 0 1-0.576-7.232s-6.4-42.88-15.488-78.08c-4.096-15.616-8.704-29.696-13.504-37.888-2.56-4.224 0.256-21.632 7.232-47.36 11.776 20.608 24.512 42.88 29.44 60.992 0 0-9.472-48.448-24.96-76.8 3.392-11.392 7.488-24.064 12.032-37.568 11.392 19.968 23.04 38.912 27.712 57.92a352.512 352.512 0 0 0-22.656-72.448C584.96 383.36 647.616 250.88 715.072 179.2c36.032-38.4 85.632-72.768 129.92-34.496z" fill="#3965BD" p-id="28776"></path></svg>